<svg width="32" height="32" viewBox="0 0 32 32" fill="none" xmlns="http://www.w3.org/2000/svg">
<rect x="0.5" y="0.5" width="31" height="31" rx="15.5" fill="#212121" stroke="#565656"/>
<path d="M19.4604 19.3856L22.1826 22.0619L21.2833 22.9462L18.5616 20.2694C17.549 21.0676 16.2894 21.5018 14.9915 21.5C11.8339 21.5 9.27118 18.98 9.27118 15.875C9.27118 12.77 11.8339 10.25 14.9915 10.25C18.1491 10.25 20.7119 12.77 20.7119 15.875C20.7137 17.1513 20.2722 18.3898 19.4604 19.3856ZM18.1854 18.9219C18.992 18.1062 19.4425 17.0128 19.4407 15.875C19.4407 13.4575 17.4494 11.5 14.9915 11.5C12.533 11.5 10.5424 13.4575 10.5424 15.875C10.5424 18.2919 12.533 20.25 14.9915 20.25C16.1486 20.2518 17.2605 19.8088 18.09 19.0156L18.1854 18.9219V18.9219Z" fill="white"/>
</svg>
