<svg width="133" height="64" viewBox="0 0 133 64" fill="none" xmlns="http://www.w3.org/2000/svg">
<path d="M60.8919 0.899512C73.058 4.35252 84.0846 17.1632 81.8172 29.2832C86.3406 25.8302 91.2669 22.1355 96.9874 21.8938C102.708 21.6521 108.912 26.6935 107.565 32.2528C112.975 31.919 118.603 31.6313 123.61 33.6801C128.617 35.7289 132.818 40.8738 131.932 46.226C130.861 52.6141 123.633 55.8599 117.245 56.9188C105.607 58.8055 93.671 57.1158 83.0142 52.0731C79.5513 55.8542 75.2778 58.803 70.5138 60.6984C65.7497 62.5939 60.6186 63.3869 55.5046 63.0183C50.3906 62.6496 45.4263 61.1287 40.9834 58.5695C36.5405 56.0103 32.7341 52.479 29.8494 48.2402C21.1248 53.2241 7.37033 57.6554 1.40814 45.5354C-1.30823 40.0106 0.0729733 32.9664 4.11299 28.2704C6.21459 26.0145 8.77238 24.232 11.6163 23.0412C14.4601 21.8505 17.5249 21.2788 20.6069 21.3643C26.5345 21.3643 31.5414 24.0116 36.9051 25.6461C37.7108 17.589 36.0878 10.1766 43.0514 4.23743C48.2194 -0.18242 54.6996 -0.861522 60.8919 0.899512Z" fill="#4E2782"/>
</svg>
